<?xml version="1.0" encoding="UTF-8"?>
<svg width="60.848mm" height="60.848mm" version="1.1" viewBox="0 0 60.848 60.848" xmlns="http://www.w3.org/2000/svg" xmlns:cc="http://creativecommons.org/ns#" xmlns:dc="http://purl.org/dc/elements/1.1/" xmlns:osb="http://www.openswatchbook.org/uri/2009/osb" xmlns:rdf="http://www.w3.org/1999/02/22-rdf-syntax-ns#" xmlns:xlink="http://www.w3.org/1999/xlink">
 <defs>
  <linearGradient id="linearGradient1112" osb:paint="solid">
   <stop stop-color="#fff" offset="0"/>
  </linearGradient>
  <linearGradient id="linearGradient1024" osb:paint="solid">
   <stop stop-color="#007b00" offset="0"/>
  </linearGradient>
  <linearGradient id="linearGradient879" osb:paint="solid">
   <stop offset="0"/>
  </linearGradient>
  <linearGradient id="linearGradient881" x1="56.47" x2="142.77" y1="169.51" y2="169.51" gradientUnits="userSpaceOnUse" xlink:href="#linearGradient879"/>
  <linearGradient id="linearGradient895" x1="78.451" x2="121.86" y1="146.79" y2="146.79" gradientUnits="userSpaceOnUse" xlink:href="#linearGradient879"/>
  <linearGradient id="linearGradient1026" x1="54.348" x2="140.43" y1="164.16" y2="164.16" gradientTransform="translate(30.655 -107.13)" gradientUnits="userSpaceOnUse" xlink:href="#linearGradient1024"/>
  <linearGradient id="linearGradient1035" x1="54.348" x2="140.43" y1="164.16" y2="164.16" gradientTransform="matrix(1.0844 0 0 1.0844 9.8767 -109.58)" gradientUnits="userSpaceOnUse" xlink:href="#linearGradient1024"/>
  <linearGradient id="linearGradient1052" x1="54.348" x2="140.43" y1="164.16" y2="164.16" gradientTransform="matrix(1.0844 0 0 1.0844 -184.09 -120.41)" gradientUnits="userSpaceOnUse" xlink:href="#linearGradient1024"/>
  <linearGradient id="linearGradient1058" x1="54.348" x2="140.43" y1="164.16" y2="164.16" gradientTransform="translate(43.459 -88.828)" gradientUnits="userSpaceOnUse" xlink:href="#linearGradient1024"/>
  <linearGradient id="linearGradient1060" x1="54.348" x2="140.43" y1="164.16" y2="164.16" gradientTransform="matrix(1.0844 0 0 1.0844 22.68 -91.27)" gradientUnits="userSpaceOnUse" xlink:href="#linearGradient1024"/>
  <linearGradient id="linearGradient1114" x1="69.242" x2="110.68" y1="201.51" y2="201.51" gradientUnits="userSpaceOnUse" xlink:href="#linearGradient1112"/>
 </defs>
 <metadata>
  <rdf:RDF>
   <cc:Work rdf:about="">
    <dc:format>image/svg+xml</dc:format>
    <dc:type rdf:resource="http://purl.org/dc/dcmitype/StillImage"/>
    <dc:title/>
   </cc:Work>
  </rdf:RDF>
 </metadata>
 <g transform="translate(-51.869 -176.8)">
  <g fill-rule="evenodd">
   <path d="m-79.049 16.998c-1.2822 0.0135-2.5633 0.0901-3.838 0.22892-1.2747 0.13878-2.5432 0.33921-3.7998 0.59945-1.2565 0.26025-2.5012 0.58077-3.729 0.9586-1.2277 0.37782-2.4384 0.81332-3.6266 1.3048-1.1883 0.49153-2.3541 1.0389-3.4923 1.6402s-2.2489 1.2569-3.3264 1.9642c-1.0775 0.7073-2.1223 1.4665-3.1285 2.2758s-1.9738 1.6685-2.898 2.5761c-0.78656 0.76173-1.5405 1.557-2.2603 2.3828-0.71985 0.82579-1.4054 1.6823-2.0552 2.5652-0.64972 0.88296-1.264 1.7927-1.8402 2.7259-0.57619 0.9332-1.1141 1.8894-1.6133 2.866-0.49926 0.97655-0.9598 1.9734-1.3787 2.9864-0.41892 1.013-0.79653 2.0421-1.1317 3.0846-0.33519 1.0425-0.62736 2.098-0.8754 3.1631-0.24805 1.0651-0.45228 2.1397-0.60978 3.2205-0.11377 0.75003-0.20493 1.5072-0.27389 2.2691-0.069 0.7619-0.1154 1.5284-0.14004 2.2975-0.0493 1.5382-0.0104 3.0865 0.11472 4.6256 0.12509 1.539 0.33641 3.0693 0.632 4.5718 0.1478 0.75124 0.31675 1.4953 0.50643 2.2304 0.18968 0.73509 0.39986 1.4613 0.63097 2.1756 0.3829 1.2203 0.82791 2.4222 1.3317 3.6008 0.5038 1.1786 1.0664 2.3341 1.6836 3.4613 0.61722 1.1272 1.2891 2.2263 2.0123 3.2923 0.72317 1.066 1.4976 2.0988 2.3192 3.0939 0.82165 0.9951 1.6908 1.9526 2.6035 2.867 0.91264 0.91445 1.8688 1.7856 2.8649 2.6097 0.99617 0.82404 2.0325 1.601 3.1047 2.3249s2.1804 1.3952 3.3212 2.0092c1.1294 0.62005 2.2886 1.1827 3.4716 1.6878 1.1831 0.50501 2.3905 0.95218 3.6158 1.341 1.2253 0.38883 2.4687 0.71916 3.7248 0.99065 1.2562 0.27144 2.5248 0.48421 3.8003 0.63717 1.2755 0.15296 2.5582 0.24627 3.8416 0.27956 1.2834 0.0333 2.5675 7e-3 3.8473-0.0811 1.2798-0.0876 2.5551-0.23593 3.8199-0.44546 1.2648-0.20952 2.5196-0.48021 3.7579-0.81287 1.2446-0.32319 2.4724-0.7089 3.6799-1.1539 1.2075-0.44506 2.3944-0.94943 3.5548-1.5095 1.1605-0.56004 2.2952-1.1756 3.3988-1.8438 1.1036-0.66818 2.1759-1.3885 3.2127-2.158s2.0376-1.5881 2.9978-2.452c0.96017-0.86392 1.8797-1.7734 2.7533-2.7249 0.8736-0.95155 1.7012-1.9453 2.4784-2.9776 0.77715-1.0323 1.5037-2.1034 2.1745-3.2096 0.46967-0.76348 0.9128-1.5426 1.3291-2.3363 0.41631-0.79372 0.80594-1.6019 1.1679-2.4215 0.36195-0.81963 0.69647-1.6506 1.003-2.4918 0.30658-0.84121 0.58542-1.6928 0.83561-2.5513 0.25019-0.85845 0.47176-1.7243 0.66456-2.5957 0.19278-0.87138 0.35652-1.7478 0.49092-2.6278 0.13439-0.87995 0.2392-1.7632 0.3142-2.6474 0.075-0.88423 0.1203-1.7694 0.13487-2.6536 0.0235-1.2429-0.0113-2.4855-0.10284-3.7222-0.0916-1.2368-0.24013-2.4679-0.4439-3.6871-0.20376-1.2193-0.46303-2.4269-0.77618-3.6174-0.31315-1.1905-0.67993-2.3636-1.0997-3.514-0.37075-1.0285-0.78564-2.0416-1.2423-3.0365-0.45667-0.99494-0.95521-1.9722-1.4929-2.9275-0.53771-0.95529-1.1147-1.8888-1.7286-2.7983-0.61387-0.90952-1.2646-1.7944-1.9498-2.652-0.68516-0.85761-1.4049-1.6876-2.1565-2.4872s-1.5351-1.5688-2.3482-2.3042c-0.8131-0.73547-1.6557-1.437-2.5254-2.1022-0.86976-0.66521-1.7667-1.2937-2.6882-1.8826-0.83478-0.54104-1.6905-1.0507-2.5642-1.527-0.87374-0.47636-1.7656-0.91986-2.6727-1.3302-0.90716-0.41029-1.8297-0.78737-2.7647-1.1302-0.93505-0.34277-1.8822-0.65114-2.8396-0.925-0.9574-0.27386-1.9254-0.51324-2.8996-0.71676-0.97424-0.20352-1.9549-0.37155-2.9404-0.50332s-1.9754-0.22719-2.9667-0.28577c-0.99129-0.0586-1.984-0.0801-2.9755-0.0641z" fill="url(#linearGradient1052)" stroke-width=".099761"/>
   <path d="m114.88 25.558c-1.3542 0.0142-2.7067 0.0957-4.053 0.24288-1.3462 0.14711-2.6861 0.35975-4.0132 0.63561-1.327 0.27588-2.6416 0.61547-3.9383 1.016-1.2966 0.40049-2.5753 0.86184-3.8303 1.3829-1.255 0.52103-2.486 1.1015-3.6881 1.7389-1.2021 0.63744-2.375 1.3323-3.513 2.082s-2.2415 1.5543-3.3042 2.4123c-1.0627 0.85792-2.0847 1.7691-3.0608 2.7311-0.83072 0.80744-1.6272 1.6501-2.3875 2.5254-0.76025 0.87535-1.4842 1.7833-2.1704 2.7192-0.68619 0.93595-1.335 1.9-1.9436 2.8892-0.60853 0.98921-1.177 2.0034-1.7043 3.0386-0.52728 1.0352-1.0133 2.0914-1.4557 3.1652-0.44244 1.0738-0.84127 2.1645-1.1953 3.2696-0.354 1.105-0.66253 2.2243-0.92449 3.3533-0.26197 1.129-0.47755 2.2681-0.64389 3.4138-0.12015 0.79504-0.21655 1.5974-0.28939 2.405-0.07283 0.80763-0.12177 1.6202-0.14779 2.4355-0.05205 1.6305-0.01118 3.2716 0.12092 4.9031 0.13211 1.6314 0.35547 3.2535 0.66766 4.8462 0.31218 1.5927 0.71331 3.1561 1.2015 4.6705 0.40439 1.2935 0.87456 2.5675 1.4066 3.8168 0.53208 1.2494 1.1258 2.4742 1.7777 3.669 0.65186 1.1948 1.3617 2.3602 2.1254 3.4902 0.76376 1.13 1.5817 2.2245 2.4495 3.2794 0.86776 1.0548 1.7853 2.0692 2.7492 3.0386 0.96388 0.96933 1.9741 1.8933 3.0262 2.7668 1.0521 0.87352 2.1464 1.6971 3.2789 2.4645 1.1324 0.76735 2.3024 1.4792 3.5073 2.1301 1.1927 0.65728 2.4175 1.2532 3.667 1.7885 1.2495 0.53533 2.5242 1.0095 3.8184 1.4216 1.2941 0.41214 2.6074 0.76229 3.9341 1.05s2.6666 0.51329 4.0137 0.6754c1.3471 0.16216 2.7017 0.26135 4.0571 0.29662 1.3554 0.0353 2.7116 7e-3 4.0633-0.0863 1.3517-0.0928 2.6986-0.24971 4.0344-0.4718 1.3358-0.22212 2.6609-0.50935 3.9688-0.86199 1.3144-0.34255 2.6113-0.75142 3.8866-1.2232s2.5287-1.0063 3.7543-1.5999c1.2256-0.59364 2.4239-1.2466 3.5894-1.9549 1.1655-0.70831 2.298-1.4721 3.3931-2.2877 1.095-0.81568 2.1522-1.683 3.1662-2.5988 1.0141-0.91578 1.9852-1.8796 2.9078-2.8882 0.92264-1.0086 1.7972-2.0622 2.6179-3.1564 0.82078-1.0942 1.588-2.2298 2.2965-3.4024 0.49604-0.80928 0.96384-1.6355 1.4035-2.4768 0.43968-0.84135 0.85125-1.6974 1.2335-2.5662 0.38226-0.86882 0.73507-1.75 1.0588-2.6417 0.32379-0.89169 0.6184-1.7943 0.88263-2.7042 0.26424-0.90997 0.49815-1.8276 0.70177-2.7512 0.20362-0.92367 0.37689-1.8531 0.51883-2.7859 0.14194-0.93276 0.25256-1.8687 0.33176-2.806s0.12724-1.876 0.14263-2.8133c0.0248-1.3175-0.0123-2.6345-0.10904-3.9455-0.0967-1.311-0.25298-2.6159-0.46819-3.9083-0.21519-1.2924-0.48937-2.5725-0.8201-3.8344-0.33073-1.2619-0.71839-2.5055-1.1617-3.7248-0.39156-1.0902-0.82925-2.1643-1.3116-3.2189s-1.0093-2.09-1.5772-3.1027c-0.5679-1.0126-1.1769-2.0021-1.8252-2.9662-0.64833-0.9641-1.3357-1.9026-2.0593-2.8117-0.72362-0.90909-1.4836-1.789-2.2774-2.6365s-1.6212-1.6626-2.48-2.4422c-0.85874-0.7796-1.749-1.5237-2.6675-2.2288-0.91857-0.70513-1.8659-1.3711-2.8391-1.9952-0.88164-0.57351-1.7856-1.1135-2.7084-1.6185-0.92278-0.50496-1.8645-0.97535-2.8226-1.4102-0.95808-0.43492-1.9322-0.8345-2.9197-1.1979-0.98753-0.36334-1.9882-0.69052-2.9993-0.98081-1.0111-0.2903-2.0329-0.5434-3.0618-0.75913-1.0289-0.21574-2.0649-0.39414-3.1058-0.53382-1.0408-0.13967-2.0862-0.24072-3.1331-0.30282-1.0469-0.0621-2.0958-0.0852-3.143-0.0682zm0.0326 2.2712c0.99153-0.016 1.9842 5e-3 2.9755 0.0641 0.99129 0.0586 1.9812 0.154 2.9667 0.28577 0.98552 0.13178 1.9662 0.29981 2.9404 0.50333 0.97422 0.20352 1.9422 0.4429 2.8996 0.71676 0.95741 0.27386 1.9046 0.58222 2.8396 0.925 0.93503 0.34279 1.8575 0.71988 2.7647 1.1302 0.90714 0.41029 1.799 0.85379 2.6727 1.3302 0.87372 0.47638 1.7294 0.986 2.5642 1.527 0.92151 0.58884 1.8185 1.2174 2.6882 1.8826 0.86975 0.6652 1.7123 1.3667 2.5254 2.1022 0.81311 0.73545 1.5966 1.5047 2.3482 2.3042s1.4713 1.6296 2.1565 2.4872c0.68517 0.8576 1.3359 1.7425 1.9498 2.652 0.61388 0.9095 1.1909 1.843 1.7286 2.7983 0.53772 0.95528 1.0363 1.9325 1.4929 2.9275 0.45666 0.99494 0.87155 2.008 1.2423 3.0365 0.41974 1.1504 0.78652 2.3235 1.0997 3.514s0.57242 2.3981 0.77619 3.6174c0.20376 1.2193 0.3523 2.4504 0.44389 3.6871 0.0915 1.2368 0.12634 2.4793 0.10284 3.7222-0.0146 0.88416-0.0599 1.7694-0.13487 2.6536-0.075 0.88422-0.17981 1.7674-0.3142 2.6474-0.1344 0.87996-0.29813 1.7564-0.49092 2.6277-0.1928 0.87137-0.41437 1.7373-0.66456 2.5957-0.25019 0.85844-0.52903 1.7101-0.83561 2.5513-0.30657 0.84119-0.64109 1.6722-1.003 2.4918-0.36195 0.81963-0.75158 1.6278-1.1679 2.4216-0.41632 0.79372-0.85945 1.5728-1.3291 2.3363-0.67081 1.1062-1.3974 2.1774-2.1746 3.2096-0.77716 1.0323-1.6048 2.026-2.4784 2.9776-0.87361 0.95152-1.7932 1.861-2.7533 2.7249-0.96016 0.86394-1.9609 1.6826-2.9978 2.4521-1.0368 0.76949-2.1091 1.4898-3.2127 2.158-1.1036 0.66821-2.2383 1.2838-3.3988 1.8438-1.1605 0.56005-2.3474 1.0644-3.5548 1.5095-1.2075 0.44503-2.4353 0.83073-3.6799 1.1539-1.2383 0.33266-2.4931 0.60336-3.7579 0.81288-1.2648 0.20953-2.5401 0.35785-3.8199 0.44546-1.2798 0.0884-2.5639 0.11443-3.8473 0.0811-1.2834-0.0333-2.5661-0.12661-3.8416-0.27956-1.2755-0.15296-2.5441-0.36574-3.8003-0.63717-1.2562-0.27149-2.4995-0.60182-3.7248-0.99065-1.2254-0.38881-2.4327-0.83598-3.6158-1.341-1.1831-0.50504-2.3423-1.0677-3.4716-1.6878-1.1408-0.61402-2.249-1.2853-3.3212-2.0092-1.0722-0.7239-2.1086-1.5009-3.1047-2.3249-0.99617-0.82404-1.9523-1.6952-2.8649-2.6097-0.91265-0.91445-1.7818-1.8719-2.6035-2.867-0.82164-0.99512-1.5961-2.0278-2.3192-3.0939-0.72316-1.066-1.3951-2.1651-2.0123-3.2923-0.61722-1.1272-1.1798-2.2827-1.6836-3.4613-0.50379-1.1786-0.9488-2.3805-1.3317-3.6008-0.23111-0.71433-0.44129-1.4405-0.63097-2.1756-0.18968-0.73508-0.35863-1.4791-0.50643-2.2304-0.29559-1.5025-0.50691-3.0328-0.632-4.5718-0.12508-1.539-0.164-3.0873-0.11472-4.6256 0.02464-0.76912 0.07108-1.5356 0.14004-2.2975 0.06896-0.76191 0.16012-1.5191 0.27389-2.2691 0.1575-1.0808 0.36174-2.1554 0.60978-3.2205 0.24804-1.0651 0.54021-2.1206 0.8754-3.1631 0.33518-1.0425 0.71279-2.0716 1.1317-3.0846 0.41892-1.013 0.87947-2.0098 1.3787-2.9864 0.49926-0.97653 1.0371-1.9328 1.6133-2.866 0.57619-0.93322 1.1905-1.843 1.8402-2.7259 0.64972-0.88295 1.3353-1.7394 2.0552-2.5652 0.71984-0.82578 1.4738-1.6211 2.2603-2.3828 0.92426-0.90753 1.8918-1.7667 2.898-2.5761 1.0062-0.80935 2.051-1.5685 3.1285-2.2758 1.0775-0.70729 2.1882-1.3629 3.3264-1.9642 1.1382-0.60135 2.304-1.1487 3.4923-1.6402 1.1883-0.49151 2.3989-0.92701 3.6266-1.3048 1.2277-0.37783 2.4724-0.69835 3.729-0.9586 1.2565-0.26024 2.5251-0.46067 3.7998-0.59945 1.2747-0.13881 2.5558-0.21542 3.838-0.22893z" fill="url(#linearGradient1035)" stroke-width=".099761"/>
   <path d="m127.5 14.518c-9.9771 0.10698-19.839 3.846-27.39 10.46-7.7249 6.6937-12.847 16.213-14.192 26.314-1.3843 10.029 0.92645 20.368 6.4637 28.883 5.6788 8.8102 14.751 15.361 24.881 17.975 9.7548 2.5691 20.243 1.544 29.308-2.8624 7.4624-3.5959 13.885-9.4944 18.092-16.671 4.225-7.1352 6.293-15.602 5.8281-23.865-0.42208-8.2824-3.3936-16.524-8.4372-23.222-6.3396-8.5277-16.039-14.514-26.529-16.348-2.6599-0.4736-5.3278-0.69399-8.0248-0.66146zm-0.0186 2.96c0.96565-0.0156 1.9326 5e-3 2.898 0.0625 0.96543 0.0573 1.9294 0.15077 2.8892 0.27957 0.9598 0.1288 1.9151 0.29302 2.8639 0.49196 0.94881 0.19894 1.8912 0.43252 2.8236 0.70022 0.93242 0.26769 1.8551 0.56927 2.7657 0.90433 0.91064 0.33507 1.8089 0.7038 2.6923 1.1048s1.752 0.83453 2.6029 1.3002c0.85093 0.46566 1.6845 0.96356 2.4975 1.4924 0.89747 0.57557 1.7709 1.19 2.6179 1.8402s1.6679 1.3363 2.4598 2.0552 1.5547 1.4705 2.2867 2.2521 1.4328 1.5931 2.1001 2.4314c0.66729 0.83829 1.3012 1.7036 1.8991 2.5926s1.1594 1.8015 1.6831 2.7352c0.52368 0.93377 1.0094 1.8888 1.4542 2.8613 0.44475 0.97253 0.84867 1.963 1.2097 2.9683 0.40878 1.1244 0.76627 2.2713 1.0712 3.4349 0.30498 1.1636 0.55758 2.3439 0.75603 3.5357 0.19844 1.1918 0.34285 2.395 0.43201 3.6039 0.0892 1.2089 0.12311 2.4236 0.10026 3.6385-0.0142 0.86425-0.0582 1.7298-0.13126 2.5942-0.073 0.86431-0.17503 1.7273-0.30593 2.5874-0.13089 0.86015-0.29075 1.7171-0.47852 2.5688s-0.40332 1.6982-0.64699 2.5373c-0.24366 0.83912-0.51533 1.6711-0.8139 2.4934-0.29858 0.82226-0.62418 1.6349-0.97669 2.436-0.3525 0.80117-0.73194 1.5909-1.1374 2.3668-0.40545 0.77585-0.83707 1.5378-1.2945 2.2841-0.6533 1.0813-1.3608 2.1282-2.1177 3.1373-0.75688 1.009-1.563 1.9803-2.4138 2.9104-0.85081 0.93011-1.7464 1.8189-2.6815 2.6634-0.93511 0.84449-1.9099 1.6446-2.9197 2.3968-1.0098 0.75216-2.0542 1.4563-3.129 2.1094-1.0748 0.65314-2.1797 1.255-3.3099 1.8025s-2.2858 1.0404-3.4618 1.4754c-1.176 0.43501-2.3722 0.81218-3.5843 1.1281-1.206 0.32517-2.4279 0.58998-3.6597 0.79478-1.2318 0.20481-2.4738 0.34955-3.7202 0.43512-1.2464 0.0856-2.4972 0.11212-3.7471 0.0796-1.2499-0.0325-2.4992-0.12386-3.7414-0.27337-1.2422-0.14951-2.4777-0.35734-3.7011-0.6227-1.2234-0.26535-2.4343-0.58835-3.6277-0.96841-1.1934-0.38007-2.369-0.81739-3.5212-1.311-1.1522-0.49364-2.2813-1.0434-3.3812-1.6495-1.111-0.60017-2.1902-1.2566-3.2344-1.9642s-2.0534-1.4667-3.0236-2.2722-1.9017-1.6574-2.7905-2.5513c-0.88883-0.89386-1.735-1.8297-2.5352-2.8024-0.8002-0.97271-1.5545-1.9821-2.2588-3.0241-0.7043-1.042-1.3585-2.1166-1.9596-3.2184s-1.149-2.2312-1.6397-3.3833c-0.49065-1.1521-0.92417-2.3268-1.2971-3.5197-0.45016-1.3965-0.82007-2.838-1.1079-4.3067-0.28788-1.4687-0.49364-2.9646-0.61547-4.469-0.12182-1.5044-0.15962-3.0176-0.11162-4.5212 0.024-0.7518 0.06926-1.5011 0.13643-2.2459 0.06716-0.74475 0.15585-1.4848 0.26665-2.218 0.15339-1.0564 0.35219-2.107 0.59376-3.1481 0.24157-1.0411 0.52622-2.0728 0.85266-3.0918 0.32644-1.019 0.69426-2.0252 1.1023-3.0153s0.85632-1.9641 1.3426-2.9187c0.48623-0.95455 1.0103-1.8897 1.5715-2.8019s1.1594-1.8014 1.7921-2.6644c0.63276-0.86307 1.3004-1.7001 2.0014-2.5073s1.4354-1.5845 2.2014-2.3291c0.90014-0.8871 1.8426-1.7271 2.8226-2.5182 0.97994-0.79113 1.9974-1.5333 3.0468-2.2247s2.1311-1.332 3.2396-1.9198c1.1085-0.58781 2.2436-1.1231 3.4008-1.6035 1.1573-0.48045 2.3364-0.90606 3.5321-1.2754 1.1957-0.36932 2.4081-0.68251 3.6318-0.9369 1.2237-0.25438 2.4591-0.45035 3.7006-0.58601 1.2414-0.13566 2.489-0.21062 3.7378-0.22376z" fill="url(#linearGradient1026)" stroke-width=".091994"/>
  </g>
  <g transform="matrix(.53606 0 0 .53705 75.739 -14.279)" stroke="#000" stroke-width=".26458px">
   <path d="m58.291 161.28 15.479-3.5242c16.846 14.516 34.746 13.657 53.277-0.29372l15.343 3.6718c-17.945 9.3061-26.81 18.357-42.483 20.439-13.587-1.9027-25.11-12.511-41.616-20.293z" fill="url(#linearGradient881)"/>
   <path d="m78.603 156.33c14.524 10.832 28.88 10.073 43.109 0.60246l-5.4208-24.07c-9.286-3.461-18.912-5.8127-31.075 0.1095z" fill="url(#linearGradient895)"/>
  </g>
  <path d="m127.69 43.864c-1.3542 0.0142-2.7067 0.0957-4.053 0.24288-1.3462 0.14711-2.6861 0.35975-4.0132 0.63561-1.3271 0.27588-2.6416 0.61547-3.9383 1.016-1.2966 0.40049-2.5753 0.86184-3.8303 1.3829-1.255 0.52103-2.486 1.1015-3.6882 1.7389s-2.375 1.3323-3.513 2.082-2.2415 1.5543-3.3042 2.4123c-1.0627 0.85792-2.0847 1.7691-3.0608 2.7311-0.83072 0.80744-1.6272 1.6501-2.3875 2.5254-0.76025 0.87535-1.4842 1.7833-2.1704 2.7192-0.68619 0.93595-1.335 1.9-1.9436 2.8892-0.60853 0.98921-1.177 2.0034-1.7043 3.0386-0.52728 1.0352-1.0133 2.0914-1.4557 3.1652-0.44244 1.0738-0.84127 2.1645-1.1953 3.2696-0.354 1.105-0.66253 2.2243-0.92449 3.3533-0.26197 1.129-0.47755 2.2681-0.64389 3.4138-0.12015 0.79504-0.21655 1.5974-0.28939 2.405-0.07283 0.80763-0.12177 1.6202-0.14779 2.4355-0.05205 1.6305-0.01118 3.2716 0.12092 4.9031 0.13211 1.6314 0.35547 3.2535 0.66766 4.8462 0.31218 1.5927 0.71331 3.1561 1.2015 4.6705 0.40439 1.2935 0.87456 2.5675 1.4066 3.8168 0.53208 1.2494 1.1258 2.4742 1.7777 3.669 0.65186 1.1948 1.3617 2.3602 2.1254 3.4902 0.76376 1.13 1.5817 2.2245 2.4495 3.2794 0.86776 1.0548 1.7853 2.0692 2.7492 3.0386 0.96388 0.96933 1.9741 1.8932 3.0262 2.7668 1.0521 0.87352 2.1464 1.6971 3.2789 2.4645 1.1324 0.76735 2.3024 1.4792 3.5073 2.1301 1.1928 0.65728 2.4175 1.2532 3.667 1.7885 1.2495 0.53533 2.5242 1.0095 3.8184 1.4216 1.2941 0.41214 2.6075 0.76229 3.9341 1.05s2.6666 0.51329 4.0137 0.6754c1.3471 0.16216 2.7017 0.26135 4.0571 0.29662 1.3554 0.0353 2.7116 7e-3 4.0633-0.0863 1.3517-0.0928 2.6986-0.24971 4.0344-0.4718 1.3358-0.22212 2.6609-0.50935 3.9688-0.86199 1.3144-0.34255 2.6113-0.75142 3.8866-1.2232s2.5287-1.0063 3.7543-1.5999c1.2256-0.59364 2.4239-1.2466 3.5894-1.9549 1.1655-0.70831 2.298-1.4721 3.3931-2.2877 1.095-0.81568 2.1522-1.683 3.1662-2.5988 1.0141-0.91578 1.9852-1.8796 2.9078-2.8882 0.92264-1.0086 1.7972-2.0622 2.6179-3.1564 0.82078-1.0942 1.588-2.2298 2.2965-3.4024 0.49604-0.80928 0.96384-1.6355 1.4035-2.4768 0.43968-0.84135 0.85125-1.6974 1.2335-2.5662 0.38226-0.86882 0.73507-1.75 1.0588-2.6417 0.32379-0.89169 0.6184-1.7943 0.88263-2.7042 0.26424-0.90997 0.49815-1.8276 0.70177-2.7512 0.20362-0.92367 0.37689-1.8531 0.51883-2.7859 0.14194-0.93276 0.25256-1.8687 0.33176-2.806s0.12724-1.876 0.14263-2.8133c0.0248-1.3175-0.0123-2.6345-0.10904-3.9455-0.0967-1.311-0.25298-2.6159-0.46819-3.9083-0.21519-1.2924-0.48937-2.5725-0.8201-3.8344-0.33073-1.2619-0.71839-2.5055-1.1617-3.7248-0.39156-1.0902-0.82925-2.1643-1.3116-3.2189s-1.0093-2.09-1.5772-3.1027c-0.5679-1.0126-1.1769-2.0021-1.8252-2.9662-0.64833-0.9641-1.3357-1.9026-2.0593-2.8117-0.72362-0.90909-1.4836-1.789-2.2774-2.6365s-1.6212-1.6626-2.48-2.4422c-0.85874-0.7796-1.749-1.5237-2.6675-2.2288-0.91857-0.70513-1.8659-1.3711-2.8391-1.9952-0.88164-0.57351-1.7856-1.1135-2.7084-1.6185-0.92278-0.50496-1.8645-0.97535-2.8226-1.4102-0.95808-0.43492-1.9322-0.8345-2.9197-1.1979-0.98753-0.36334-1.9882-0.69052-2.9993-0.98081-1.0111-0.2903-2.0329-0.5434-3.0618-0.75913-1.0289-0.21574-2.0649-0.39414-3.1058-0.53382-1.0408-0.13967-2.0862-0.24072-3.1331-0.30282-1.0469-0.0621-2.0958-0.0852-3.143-0.0682zm0.0326 2.2712c0.99153-0.016 1.9842 5e-3 2.9755 0.0641 0.99129 0.0586 1.9812 0.154 2.9667 0.28577 0.98552 0.13178 1.9662 0.29981 2.9404 0.50333 0.97422 0.20352 1.9422 0.4429 2.8996 0.71676 0.95741 0.27386 1.9046 0.58222 2.8396 0.925 0.93503 0.34279 1.8575 0.71988 2.7647 1.1302 0.90714 0.41029 1.799 0.85379 2.6727 1.3302 0.87372 0.47638 1.7294 0.986 2.5642 1.527 0.92151 0.58884 1.8185 1.2174 2.6882 1.8826 0.86975 0.6652 1.7123 1.3667 2.5254 2.1022 0.81311 0.73545 1.5966 1.5047 2.3482 2.3042s1.4713 1.6296 2.1565 2.4872c0.68517 0.8576 1.3359 1.7425 1.9498 2.652 0.61388 0.9095 1.1909 1.843 1.7286 2.7983 0.53772 0.95528 1.0363 1.9325 1.4929 2.9275 0.45666 0.99494 0.87155 2.008 1.2423 3.0365 0.41974 1.1504 0.78652 2.3235 1.0997 3.514s0.57242 2.3981 0.77619 3.6174c0.20376 1.2193 0.3523 2.4504 0.44389 3.6871 0.0915 1.2368 0.12634 2.4793 0.10284 3.7222-0.0146 0.88416-0.0599 1.7694-0.13487 2.6536-0.075 0.88422-0.17981 1.7674-0.3142 2.6474-0.1344 0.87996-0.29813 1.7564-0.49092 2.6277-0.1928 0.87137-0.41437 1.7373-0.66456 2.5957-0.25019 0.85844-0.52903 1.7101-0.83561 2.5513-0.30657 0.84119-0.64109 1.6722-1.003 2.4918-0.36195 0.81963-0.75158 1.6278-1.1679 2.4216-0.41632 0.79372-0.85945 1.5728-1.3291 2.3363-0.67081 1.1062-1.3974 2.1774-2.1746 3.2096-0.77716 1.0323-1.6048 2.026-2.4784 2.9776-0.87361 0.95152-1.7932 1.861-2.7533 2.7249-0.96016 0.86394-1.9609 1.6826-2.9978 2.452s-2.1091 1.4898-3.2127 2.158c-1.1036 0.66821-2.2383 1.2838-3.3988 1.8438-1.1605 0.56005-2.3474 1.0644-3.5548 1.5095-1.2075 0.44503-2.4353 0.83073-3.6799 1.1539-1.2383 0.33266-2.4931 0.60336-3.7579 0.81288-1.2648 0.20953-2.5401 0.35785-3.8199 0.44546-1.2798 0.0884-2.5639 0.11443-3.8473 0.0811-1.2834-0.0333-2.5661-0.12661-3.8416-0.27956-1.2755-0.15296-2.5441-0.36574-3.8003-0.63717-1.2562-0.27149-2.4995-0.60182-3.7248-0.99065-1.2254-0.38881-2.4327-0.83598-3.6158-1.341-1.1831-0.50504-2.3423-1.0677-3.4716-1.6878-1.1408-0.61402-2.249-1.2853-3.3212-2.0092s-2.1086-1.5009-3.1047-2.3249c-0.99617-0.82404-1.9523-1.6952-2.8649-2.6097-0.91265-0.91445-1.7818-1.8719-2.6035-2.867-0.82164-0.99512-1.5961-2.0278-2.3192-3.0939-0.72316-1.066-1.3951-2.1651-2.0123-3.2923-0.61722-1.1272-1.1798-2.2827-1.6836-3.4613-0.50379-1.1786-0.9488-2.3805-1.3317-3.6008-0.23111-0.71433-0.44129-1.4405-0.63097-2.1756-0.18968-0.73508-0.35863-1.4791-0.50643-2.2304-0.29559-1.5025-0.50691-3.0328-0.632-4.5718-0.12508-1.539-0.164-3.0873-0.11472-4.6256 0.02464-0.76912 0.07108-1.5356 0.14004-2.2975 0.06896-0.76191 0.16012-1.5191 0.27389-2.2691 0.1575-1.0808 0.36174-2.1554 0.60978-3.2205 0.24804-1.0651 0.54021-2.1206 0.8754-3.1631 0.33518-1.0425 0.71279-2.0716 1.1317-3.0846 0.41892-1.013 0.87947-2.0098 1.3787-2.9864 0.49926-0.97653 1.0371-1.9328 1.6133-2.866 0.57619-0.93322 1.1905-1.843 1.8402-2.7259 0.64972-0.88295 1.3353-1.7394 2.0552-2.5652 0.71984-0.82578 1.4738-1.6211 2.2603-2.3828 0.92425-0.90753 1.8918-1.7667 2.898-2.5761 1.0062-0.80935 2.051-1.5685 3.1285-2.2758 1.0775-0.70729 2.1882-1.3629 3.3264-1.9642 1.1382-0.60135 2.304-1.1487 3.4923-1.6402 1.1883-0.49151 2.3989-0.92701 3.6266-1.3048 1.2277-0.37783 2.4724-0.69835 3.729-0.9586 1.2565-0.26024 2.5251-0.46067 3.7998-0.59945 1.2747-0.13881 2.5558-0.21542 3.838-0.22893z" fill="url(#linearGradient1060)" fill-rule="evenodd" stroke-width=".099761"/>
  <path d="m140.31 32.824c-9.9771 0.10698-19.839 3.846-27.39 10.46-7.7249 6.6937-12.847 16.213-14.192 26.314-1.3843 10.029 0.92645 20.368 6.4637 28.883 5.6788 8.8102 14.751 15.361 24.881 17.975 9.7548 2.5691 20.243 1.544 29.308-2.8624 7.4624-3.5959 13.885-9.4944 18.092-16.671 4.225-7.1352 6.293-15.602 5.8281-23.865-0.42208-8.2824-3.3936-16.524-8.4372-23.222-6.3396-8.5277-16.039-14.514-26.529-16.348-2.6599-0.4736-5.3278-0.69399-8.0248-0.66145zm-0.0186 2.96c0.96565-0.0156 1.9326 5e-3 2.898 0.0625 0.96543 0.0573 1.9294 0.15077 2.8892 0.27957 0.9598 0.1288 1.9151 0.29302 2.8639 0.49196 0.94881 0.19894 1.8912 0.43252 2.8236 0.70022 0.93242 0.26769 1.8551 0.56927 2.7657 0.90433 0.91064 0.33507 1.8089 0.7038 2.6923 1.1048s1.752 0.83453 2.6029 1.3002c0.85093 0.46566 1.6845 0.96356 2.4975 1.4924 0.89747 0.57557 1.7709 1.19 2.6179 1.8402s1.6679 1.3363 2.4598 2.0552 1.5547 1.4705 2.2867 2.2521 1.4328 1.5931 2.1001 2.4314c0.66729 0.83829 1.3012 1.7036 1.8991 2.5926s1.1594 1.8015 1.6831 2.7352c0.52368 0.93377 1.0094 1.8888 1.4542 2.8613 0.44475 0.97253 0.84867 1.963 1.2097 2.9683 0.40878 1.1244 0.76627 2.2713 1.0712 3.4349 0.30498 1.1636 0.55758 2.3439 0.75603 3.5357 0.19844 1.1918 0.34285 2.395 0.43201 3.6039 0.0892 1.2089 0.12311 2.4236 0.10026 3.6385-0.0142 0.86425-0.0582 1.7298-0.13126 2.5942-0.073 0.86431-0.17503 1.7273-0.30593 2.5874-0.13089 0.86015-0.29075 1.7171-0.47852 2.5688s-0.40332 1.6982-0.64699 2.5373c-0.24366 0.83912-0.51533 1.6711-0.8139 2.4934-0.29858 0.82226-0.62418 1.6349-0.97669 2.436-0.3525 0.80117-0.73194 1.5909-1.1374 2.3668-0.40545 0.77585-0.83707 1.5378-1.2945 2.2841-0.6533 1.0813-1.3608 2.1282-2.1177 3.1373-0.75688 1.0091-1.563 1.9803-2.4138 2.9104-0.85081 0.93011-1.7464 1.8189-2.6815 2.6634-0.93511 0.84449-1.9099 1.6446-2.9197 2.3968-1.0098 0.75216-2.0542 1.4563-3.129 2.1094-1.0748 0.65314-2.1797 1.255-3.3099 1.8025s-2.2858 1.0404-3.4618 1.4754c-1.176 0.43501-2.3722 0.81218-3.5843 1.1281-1.206 0.32517-2.4279 0.58998-3.6597 0.79478-1.2318 0.20481-2.4738 0.34955-3.7202 0.43512-1.2464 0.0856-2.4972 0.11212-3.7471 0.0796-1.2499-0.0325-2.4992-0.12386-3.7414-0.27337-1.2422-0.14951-2.4777-0.35734-3.7011-0.6227-1.2234-0.26535-2.4343-0.58835-3.6277-0.96841-1.1934-0.38007-2.369-0.81739-3.5212-1.311-1.1522-0.49364-2.2813-1.0434-3.3812-1.6495-1.111-0.60017-2.1902-1.2566-3.2344-1.9642s-2.0534-1.4667-3.0236-2.2722-1.9017-1.6574-2.7905-2.5513c-0.88883-0.89386-1.735-1.8297-2.5352-2.8024-0.8002-0.97272-1.5545-1.9821-2.2588-3.0241-0.70429-1.042-1.3584-2.1166-1.9596-3.2184-0.60111-1.1018-1.149-2.2312-1.6397-3.3833s-0.92417-2.3268-1.2971-3.5197c-0.45016-1.3965-0.82006-2.838-1.1079-4.3067s-0.49364-2.9646-0.61547-4.469c-0.12182-1.5044-0.15962-3.0176-0.11162-4.5212 0.024-0.7518 0.0693-1.5011 0.13643-2.2459 0.0672-0.74475 0.15585-1.4848 0.26665-2.218 0.15339-1.0564 0.35219-2.107 0.59376-3.1481 0.24157-1.0411 0.52622-2.0728 0.85266-3.0918 0.32644-1.019 0.69427-2.0252 1.1023-3.0153s0.85632-1.9641 1.3426-2.9187c0.48623-0.95455 1.0103-1.8897 1.5715-2.8019 0.56116-0.91219 1.1594-1.8014 1.7921-2.6644 0.63277-0.86307 1.3004-1.7001 2.0014-2.5073s1.4354-1.5845 2.2014-2.3291c0.90013-0.8871 1.8426-1.7271 2.8226-2.5182 0.97995-0.79113 1.9974-1.5333 3.0468-2.2247 1.0494-0.69136 2.1311-1.332 3.2396-1.9198s2.2436-1.1231 3.4008-1.6035c1.1573-0.48045 2.3364-0.90606 3.5321-1.2754 1.1957-0.36932 2.4081-0.68251 3.6318-0.9369 1.2237-0.25438 2.4591-0.45035 3.7006-0.58601 1.2414-0.13566 2.489-0.21062 3.7378-0.22376z" fill="url(#linearGradient1058)" fill-rule="evenodd" stroke-width=".091994"/>
  <rect x="51.869" y="176.8" width="60.848" height="60.848" ry="11.741" fill="#ffb900" opacity=".73971" stroke-width=".26458"/>
  <text x="60.636242" y="230.5079" fill="#ffffff" font-family="sans-serif" font-size="9.8778px" letter-spacing="3.4396px" stroke-width=".26458" style="font-variant-caps:normal;font-variant-east-asian:normal;font-variant-ligatures:normal;font-variant-numeric:normal;line-height:1.25" xml:space="preserve"><tspan x="60.636242" y="230.5079" fill="#ffffff" font-family="sans-serif" font-size="9.8778px" stroke-width=".26458" style="font-variant-caps:normal;font-variant-east-asian:normal;font-variant-ligatures:normal;font-variant-numeric:normal">studio</tspan></text>
  <g transform="matrix(1 0 0 .76836 -7.7528 47.671)" fill="url(#linearGradient1114)" aria-label="X">
   <path d="m93.627 200.88 16.257-23.46h-7.3355l-12.424 18.9-12.358-18.9h-7.4677l15.993 23.46-17.05 24.716h7.4677l13.217-20.09 13.151 20.09h7.5998z" fill="url(#linearGradient1114)" stroke-width="1.6521"/>
  </g>
 </g>
</svg>
